<svg xmlns="http://www.w3.org/2000/svg" width="640" height="480" viewBox="0 0 640 480">
  <defs>
    <linearGradient id="bg" x1="0" y1="0" x2="1" y2="1">
      <stop offset="0" stop-color="#4f46e5" />
      <stop offset="1" stop-color="#22d3ee" />
    </linearGradient>
    <linearGradient id="card" x1="0" y1="0" x2="1" y2="1">
      <stop offset="0" stop-color="#0b1224" />
      <stop offset="1" stop-color="#0f172a" />
    </linearGradient>
    <filter id="glow" x="-20%" y="-20%" width="140%" height="140%">
      <feGaussianBlur stdDeviation="12" result="blur" />
      <feMerge>
        <feMergeNode in="blur" />
        <feMergeNode in="SourceGraphic" />
      </feMerge>
    </filter>
  </defs>

  <rect width="640" height="480" rx="24" fill="#0b0f1c" />
  <circle cx="120" cy="110" r="90" fill="url(#bg)" opacity="0.35" />
  <circle cx="520" cy="90" r="70" fill="url(#bg)" opacity="0.25" />
  <circle cx="520" cy="380" r="120" fill="url(#bg)" opacity="0.2" />

  <rect x="90" y="110" width="460" height="260" rx="20" fill="url(#card)" stroke="url(#bg)" stroke-width="2" filter="url(#glow)" />

  <rect x="120" y="140" width="160" height="16" rx="8" fill="#cbd5e1" opacity="0.4" />
  <rect x="120" y="168" width="220" height="10" rx="5" fill="#cbd5e1" opacity="0.2" />

  <rect x="120" y="210" width="120" height="120" rx="16" fill="#111827" stroke="#1f2937" />
  <rect x="260" y="210" width="120" height="120" rx="16" fill="#111827" stroke="#1f2937" />
  <rect x="400" y="210" width="120" height="120" rx="16" fill="#111827" stroke="#1f2937" />

  <path d="M140 300 C190 270, 220 320, 270 295 C310 275, 340 320, 380 300 C420 280, 460 305, 500 292" fill="none" stroke="url(#bg)" stroke-width="4" />
  <circle cx="270" cy="295" r="5" fill="#22d3ee" />
  <circle cx="380" cy="300" r="5" fill="#7c3aed" />
  <circle cx="500" cy="292" r="5" fill="#22d3ee" />
</svg>
